<svg xmlns="http://www.w3.org/2000/svg" width="300" height="200" viewBox="0 0 283 180" id="svg2"><g id="layer1"><path style="opacity:0.78508768;color:#000000;fill:#e6deb3;fill-opacity:1;fill-rule:nonzero;stroke:none;stroke-width:1px;marker:none;visibility:visible;display:inline;overflow:visible;enable-background:accumulate" id="path3979-4" d="M219.712 49.286c16.278 44.03-18.818 97.58-78.39 119.603-59.573 22.022-121.06 4.18-137.34-39.85-16.278-44.033 18.82-97.58 78.39-119.604 59.574-22.023 121.062-4.182 137.34 39.85z"/><path style="fill:none;stroke:#ff0404;stroke-width:1px;stroke-linecap:butt;stroke-linejoin:miter;stroke-opacity:1" d="M62.373 39.436v120" id="path3782-1"/><path style="fill:none;stroke:#ff0404;stroke-width:1px;stroke-linecap:butt;stroke-linejoin:miter;stroke-opacity:1" d="M122.373 99.436l-60 60" id="path3782-9-3"/><path style="fill:none;stroke:#ff0404;stroke-width:1px;stroke-linecap:butt;stroke-linejoin:miter;stroke-opacity:1" d="M62.373 39.436l60 60" id="path3782-0-6"/><path style="fill:none;stroke:#ff0404;stroke-width:1px;stroke-linecap:butt;stroke-linejoin:miter;stroke-opacity:1" d="M202.373 99.436h-80" id="path3782-3-84"/><path style="fill:none;stroke:#1fff09;stroke-width:1px;stroke-linecap:butt;stroke-linejoin:miter;stroke-opacity:1" d="M282.373 99.436h-80" id="path3782-3-8-3"/><path style="fill:none;stroke:#1fff09;stroke-width:1px;stroke-linecap:butt;stroke-linejoin:miter;stroke-opacity:1" d="M202.373 179.436v-80" id="path3782-3-5-2"/><path style="color:#000000;fill:#92a1a4;fill-opacity:1;fill-rule:nonzero;stroke:none;stroke-width:1px;marker:none;visibility:visible;display:inline;overflow:visible;enable-background:accumulate" id="path2987-5" d="M72.373 39.436c0 5.523-4.477 10-10 10-5.522 0-10-4.477-10-10s4.478-10 10-10c5.523 0 10 4.477 10 10z"/><path style="color:#000000;fill:#92a1a4;fill-opacity:1;fill-rule:nonzero;stroke:none;stroke-width:1px;marker:none;visibility:visible;display:inline;overflow:visible;enable-background:accumulate" id="path2987-2-85" d="M132.373 99.436c0 5.523-4.477 10-10 10-5.522 0-10-4.477-10-10s4.478-10 10-10c5.523 0 10 4.477 10 10z"/><path style="color:#000000;fill:#92a1a4;fill-opacity:1;fill-rule:nonzero;stroke:none;stroke-width:1px;marker:none;visibility:visible;display:inline;overflow:visible;enable-background:accumulate" id="path2987-8-5" d="M72.373 159.436c0 5.523-4.477 10-10 10-5.522 0-10-4.477-10-10s4.478-10 10-10c5.523 0 10 4.477 10 10z"/><path style="color:#000000;fill:#92a1a4;fill-opacity:1;fill-rule:nonzero;stroke:none;stroke-width:1px;marker:none;visibility:visible;display:inline;overflow:visible;enable-background:accumulate" id="path2987-2-8-4" d="M212.373 99.436c0 5.523-4.477 10-10 10-5.522 0-10-4.477-10-10s4.478-10 10-10c5.523 0 10 4.477 10 10z"/></g></svg>