<svg xmlns="http://www.w3.org/2000/svg" width="395.863" height="285.343" id="svg2"><g id="layer1"><path style="opacity:0.78508768;color:#000000;fill:#e6deb3;fill-opacity:1;fill-rule:nonzero;stroke:none;stroke-width:1px;marker:none;visibility:visible;display:inline;overflow:visible;enable-background:accumulate" id="path3979" d="M219.712 49.286c16.278 44.03-18.818 97.58-78.39 119.603-59.573 22.022-121.06 4.18-137.34-39.85-16.278-44.033 18.82-97.58 78.39-119.604 59.574-22.023 121.062-4.182 137.34 39.85z"/><path style="opacity:0.78508768;color:#000000;fill:#98add3;fill-opacity:1;fill-rule:nonzero;stroke:none;stroke-width:1px;marker:none;visibility:visible;display:inline;overflow:visible;enable-background:accumulate" id="path3979-0" d="M392.373 79.436c11.705 45.462-6.99 89.57-41.755 98.522-34.764 8.95-72.435-20.648-84.14-66.11-11.703-45.462 6.99-89.572 41.756-98.522 34.765-8.95 72.435 20.648 84.14 66.11z"/><path style="opacity:0.78508768;color:#000000;fill:#7ec472;fill-opacity:0.74509804;fill-rule:nonzero;stroke:none;stroke-width:1px;marker:none;visibility:visible;display:inline;overflow:visible;enable-background:accumulate" id="path3979-8" d="M293.64 195.308c9.556 31.73-22.35 69.394-71.267 84.128-48.915 14.734-96.317.956-105.873-30.773-9.557-31.73 22.35-69.394 71.265-84.128 48.915-14.734 96.317-.956 105.874 30.773z"/><path style="fill:none;stroke:#000000;stroke-width:1px;stroke-linecap:butt;stroke-linejoin:miter;stroke-opacity:1" d="M62.373 39.436v120" id="path3782"/><path style="fill:none;stroke:#000000;stroke-width:1px;stroke-linecap:butt;stroke-linejoin:miter;stroke-opacity:1" d="M122.373 99.436l-60 60" id="path3782-9"/><path style="fill:none;stroke:#000000;stroke-width:1px;stroke-linecap:butt;stroke-linejoin:miter;stroke-opacity:1" d="M62.373 39.436l60 60" id="path3782-0"/><path style="fill:none;stroke:#000000;stroke-width:1px;stroke-linecap:butt;stroke-linejoin:miter;stroke-opacity:1" d="M202.373 99.436h-80" id="path3782-3"/><path style="fill:none;stroke:#000000;stroke-width:1px;stroke-linecap:butt;stroke-linejoin:miter;stroke-opacity:1" d="M342.373 39.436v120" id="path3782-02"/><path style="fill:none;stroke:#000000;stroke-width:1px;stroke-linecap:butt;stroke-linejoin:miter;stroke-opacity:1" d="M282.373 99.436h-80" id="path3782-3-8"/><path style="fill:none;stroke:#000000;stroke-width:1px;stroke-linecap:butt;stroke-linejoin:miter;stroke-opacity:1" d="M342.373 39.436l-60 60" id="path3782-3-87"/><path style="fill:none;stroke:#000000;stroke-width:1px;stroke-linecap:butt;stroke-linejoin:miter;stroke-opacity:1" d="M342.373 159.436l-60-60" id="path3782-3-4"/><path style="fill:none;stroke:#000000;stroke-width:1px;stroke-linecap:butt;stroke-linejoin:miter;stroke-opacity:1" d="M202.373 179.436v-80" id="path3782-3-5"/><path style="fill:none;stroke:#000000;stroke-width:1px;stroke-linecap:butt;stroke-linejoin:miter;stroke-opacity:1" d="M202.373 179.436l-60 60" id="path3782-3-9"/><path style="fill:none;stroke:#000000;stroke-width:1px;stroke-linecap:butt;stroke-linejoin:miter;stroke-opacity:1" d="M262.373 239.436l-60-60" id="path3782-3-6"/><path style="fill:none;stroke:#000000;stroke-width:1px;stroke-linecap:butt;stroke-linejoin:miter;stroke-opacity:1" d="M262.373 239.436h-120" id="path3782-3-7"/><path style="color:#000000;fill:#92a1a4;fill-opacity:1;fill-rule:nonzero;stroke:none;stroke-width:1px;marker:none;visibility:visible;display:inline;overflow:visible;enable-background:accumulate" id="path2987" d="M72.373 39.436c0 5.523-4.477 10-10 10-5.522 0-10-4.477-10-10s4.478-10 10-10c5.523 0 10 4.477 10 10z"/><path style="color:#000000;fill:#92a1a4;fill-opacity:1;fill-rule:nonzero;stroke:none;stroke-width:1px;marker:none;visibility:visible;display:inline;overflow:visible;enable-background:accumulate" id="path2987-2" d="M132.373 99.436c0 5.523-4.477 10-10 10-5.522 0-10-4.477-10-10s4.478-10 10-10c5.523 0 10 4.477 10 10z"/><path style="color:#000000;fill:#92a1a4;fill-opacity:1;fill-rule:nonzero;stroke:none;stroke-width:1px;marker:none;visibility:visible;display:inline;overflow:visible;enable-background:accumulate" id="path2987-2-0" d="M292.373 99.436c0 5.523-4.477 10-10 10-5.522 0-10-4.477-10-10s4.478-10 10-10c5.523 0 10 4.477 10 10z"/><path style="color:#000000;fill:#92a1a4;fill-opacity:1;fill-rule:nonzero;stroke:none;stroke-width:1px;marker:none;visibility:visible;display:inline;overflow:visible;enable-background:accumulate" id="path2987-0" d="M352.373 39.436c0 5.523-4.477 10-10 10-5.522 0-10-4.477-10-10s4.478-10 10-10c5.523 0 10 4.477 10 10z"/><path style="color:#000000;fill:#92a1a4;fill-opacity:1;fill-rule:nonzero;stroke:none;stroke-width:1px;marker:none;visibility:visible;display:inline;overflow:visible;enable-background:accumulate" id="path2987-8-2" d="M352.373 159.436c0 5.523-4.477 10-10 10-5.522 0-10-4.477-10-10s4.478-10 10-10c5.523 0 10 4.477 10 10z"/><path style="color:#000000;fill:#92a1a4;fill-opacity:1;fill-rule:nonzero;stroke:none;stroke-width:1px;marker:none;visibility:visible;display:inline;overflow:visible;enable-background:accumulate" id="path2987-2-8-2" d="M212.373 179.436c0 5.523-4.477 10-10 10-5.522 0-10-4.477-10-10s4.478-10 10-10c5.523 0 10 4.477 10 10z"/><path style="color:#000000;fill:#92a1a4;fill-opacity:1;fill-rule:nonzero;stroke:none;stroke-width:1px;marker:none;visibility:visible;display:inline;overflow:visible;enable-background:accumulate" id="path2987-2-8-2-7" d="M152.373 239.436c0 5.523-4.477 10-10 10-5.522 0-10-4.477-10-10s4.478-10 10-10c5.523 0 10 4.477 10 10z"/><path style="color:#000000;fill:#92a1a4;fill-opacity:1;fill-rule:nonzero;stroke:none;stroke-width:1px;marker:none;visibility:visible;display:inline;overflow:visible;enable-background:accumulate" id="path2987-2-8-2-8" d="M272.373 239.436c0 5.523-4.477 10-10 10-5.522 0-10-4.477-10-10s4.478-10 10-10c5.523 0 10 4.477 10 10z"/><path style="color:#000000;fill:#92a1a4;fill-opacity:1;fill-rule:nonzero;stroke:none;stroke-width:1px;marker:none;visibility:visible;display:inline;overflow:visible;enable-background:accumulate" id="path2987-8" d="M72.373 159.436c0 5.523-4.477 10-10 10-5.522 0-10-4.477-10-10s4.478-10 10-10c5.523 0 10 4.477 10 10z"/><path style="color:#000000;fill:#92a1a4;fill-opacity:1;fill-rule:nonzero;stroke:none;stroke-width:1px;marker:none;visibility:visible;display:inline;overflow:visible;enable-background:accumulate" id="path2987-2-8" d="M212.373 99.436c0 5.523-4.477 10-10 10-5.522 0-10-4.477-10-10s4.478-10 10-10c5.523 0 10 4.477 10 10z"/></g></svg>