<svg xmlns="http://www.w3.org/2000/svg" width="242.873" height="178.325" id="svg2"><g id="layer1"><path style="opacity:0.78508768;color:#000000;fill:#e6deb3;fill-opacity:1;fill-rule:nonzero;stroke:none;stroke-width:1px;marker:none;visibility:visible;display:inline;overflow:visible;enable-background:accumulate" id="path3979-4-9" d="M219.712 49.286c16.278 44.03-18.818 97.58-78.39 119.603-59.573 22.022-121.06 4.18-137.34-39.85-16.278-44.033 18.82-97.58 78.39-119.604 59.574-22.023 121.062-4.182 137.34 39.85z"/><path style="fill:none;stroke:#ff0404;stroke-width:1px;stroke-linecap:butt;stroke-linejoin:miter;stroke-opacity:1" d="M62.373 114.436v45" id="path3782-1-1"/><path style="fill:none;stroke:#ff0404;stroke-width:1px;stroke-linecap:butt;stroke-linejoin:miter;stroke-opacity:1" d="M122.373 99.436l-25 25" id="path3782-9-3-0"/><path style="fill:none;stroke:#ff0404;stroke-width:1px;stroke-linecap:butt;stroke-linejoin:miter;stroke-opacity:1" d="M62.373 39.436v45" id="path3782-1-1-8"/><path style="fill:none;stroke:#ff0404;stroke-width:1px;stroke-linecap:butt;stroke-linejoin:miter;stroke-opacity:1" d="M97.373 74.436l25 25" id="path3782-0-6-2"/><path style="fill:none;stroke:#ff0404;stroke-width:1px;stroke-linecap:butt;stroke-linejoin:miter;stroke-opacity:1" d="M152.373 99.436h-30" id="path3782-3-84-2"/><path style="fill:none;stroke:#1fff09;stroke-width:1px;stroke-linecap:butt;stroke-linejoin:miter;stroke-opacity:1" d="M242.373 99.436h-40" id="path3782-3-8-3-9"/><path style="fill:none;stroke:#1fff09;stroke-width:1px;stroke-linecap:butt;stroke-linejoin:miter;stroke-opacity:1" d="M202.373 149.436v-50" id="path3782-3-5-2-9"/><path style="fill:none;stroke:#ff0404;stroke-width:1px;stroke-linecap:butt;stroke-linejoin:miter;stroke-opacity:1" d="M62.373 39.436l25 25" id="path3782-0-6-2-2"/><path style="color:#000000;fill:#92a1a4;fill-opacity:1;fill-rule:nonzero;stroke:none;stroke-width:1px;marker:none;visibility:visible;display:inline;overflow:visible;enable-background:accumulate" id="path2987-5-0" d="M72.373 39.436c0 5.523-4.477 10-10 10-5.522 0-10-4.477-10-10s4.478-10 10-10c5.523 0 10 4.477 10 10z"/><path style="color:#000000;fill:#92a1a4;fill-opacity:1;fill-rule:nonzero;stroke:none;stroke-width:1px;marker:none;visibility:visible;display:inline;overflow:visible;enable-background:accumulate" id="path2987-2-85-8" d="M132.373 99.436c0 5.523-4.477 10-10 10-5.522 0-10-4.477-10-10s4.478-10 10-10c5.523 0 10 4.477 10 10z"/><path style="fill:none;stroke:#ff0404;stroke-width:1px;stroke-linecap:butt;stroke-linejoin:miter;stroke-opacity:1" d="M87.373 134.436l-25 25" id="path3782-9-3-0-7"/><path style="color:#000000;fill:#92a1a4;fill-opacity:1;fill-rule:nonzero;stroke:none;stroke-width:1px;marker:none;visibility:visible;display:inline;overflow:visible;enable-background:accumulate" id="path2987-8-5-3" d="M72.373 159.436c0 5.523-4.477 10-10 10-5.522 0-10-4.477-10-10s4.478-10 10-10c5.523 0 10 4.477 10 10z"/><path style="fill:none;stroke:#ff0404;stroke-width:1px;stroke-linecap:butt;stroke-linejoin:miter;stroke-opacity:1" d="M202.373 99.436h-30" id="path3782-9-3-0-5"/><path style="fill:none;stroke:#ff0404;stroke-width:1px;stroke-linecap:butt;stroke-linejoin:miter;stroke-opacity:1" d="M172.373 94.436v10" id="path3782-9-3-0-1"/><path style="fill:none;stroke:#ff0404;stroke-width:1px;stroke-linecap:butt;stroke-linejoin:miter;stroke-opacity:1" d="M152.373 94.436v10" id="path3782-9-3-0-1-8"/><path style="fill:none;stroke:#ff0404;stroke-width:1px;stroke-linecap:butt;stroke-linejoin:miter;stroke-opacity:1" d="M57.373 114.436h10" id="path3782-9-3-0-1-8-3"/><path style="fill:none;stroke:#ff0404;stroke-width:1px;stroke-linecap:butt;stroke-linejoin:miter;stroke-opacity:1" d="M67.373 84.436h-10" id="path3782-9-3-0-1-8-4"/><path style="fill:none;stroke:#ff0404;stroke-width:1px;stroke-linecap:butt;stroke-linejoin:miter;stroke-opacity:1" d="M92.373 59.436l-10 10" id="path3782-9-3-0-1-8-8"/><path style="fill:none;stroke:#ff0404;stroke-width:1px;stroke-linecap:butt;stroke-linejoin:miter;stroke-opacity:1" d="M102.373 69.436l-10 10" id="path3782-9-3-0-1-8-40"/><path style="fill:none;stroke:#ff0404;stroke-width:1px;stroke-linecap:butt;stroke-linejoin:miter;stroke-opacity:1" d="M82.373 129.436l10 10" id="path3782-9-3-0-1-8-6"/><path style="color:#000000;fill:#92a1a4;fill-opacity:1;fill-rule:nonzero;stroke:none;stroke-width:1px;marker:none;visibility:visible;display:inline;overflow:visible;enable-background:accumulate" id="path2987-2-8-4-9" d="M212.373 99.436c0 5.523-4.477 10-10 10-5.522 0-10-4.477-10-10s4.478-10 10-10c5.523 0 10 4.477 10 10z"/><path style="fill:none;stroke:#ff0404;stroke-width:1px;stroke-linecap:butt;stroke-linejoin:miter;stroke-opacity:1" d="M92.477 119.1l10 10" id="path3782-9-3-0-1-8-6-9"/></g></svg>