<svg xmlns="http://www.w3.org/2000/svg" width="300" height="200" viewBox="0 0 389 408" id="svg4771"><g id="layer1"><path style="fill:#c5c5c5;fill-opacity:1;stroke-width:1.39999998000000003;stroke-miterlimit:4;stroke-dasharray:none" id="path4705-3" d="M383.783 307.643a94.854 94.854 0 1 1-189.71 0 94.854 94.854 0 1 1 189.71 0z"/><path style="fill:#c5c5c5;fill-opacity:1;stroke-width:1.39999998000000003;stroke-miterlimit:4;stroke-dasharray:none" id="path4705-8" d="M386.068 87.43a83.783 83.783 0 1 1-167.565 0 83.783 83.783 0 1 1 167.565 0z"/><path style="fill:#c5c5c5;fill-opacity:1;stroke-width:1.39999998000000003;stroke-miterlimit:4;stroke-dasharray:none" id="path4705" d="M166.17 202.606a80.926 80.926 0 1 1-161.852 0 80.926 80.926 0 1 1 161.852 0z"/><path style="fill:#000000;fill-opacity:1;fill-rule:evenodd;stroke:#000000;stroke-width:1px;stroke-linecap:butt;stroke-linejoin:miter;stroke-opacity:1" id="path3821" d="M90.722 145.536a6.046 6.046 0 1 1-12.09 0 6.046 6.046 0 1 1 12.09 0z"/><path style="fill:#000000;fill-opacity:1;fill-rule:evenodd;stroke:#000000;stroke-width:1px;stroke-linecap:butt;stroke-linejoin:miter;stroke-opacity:1" id="path3821-8" d="M40.056 214.595a6.046 6.046 0 1 1-12.092 0 6.046 6.046 0 1 1 12.092 0z"/><path style="fill:#000000;fill-opacity:1;fill-rule:evenodd;stroke:#000000;stroke-width:1px;stroke-linecap:butt;stroke-linejoin:miter;stroke-opacity:1" id="path3821-0" d="M102.73 245.76a6.046 6.046 0 1 1-12.093 0 6.046 6.046 0 1 1 12.092 0z"/><path style="fill:#000000;fill-opacity:1;fill-rule:evenodd;stroke:#000000;stroke-width:1px;stroke-linecap:butt;stroke-linejoin:miter;stroke-opacity:1" id="path3821-4" d="M140.367 183.6a6.046 6.046 0 1 1-12.092 0 6.046 6.046 0 1 1 12.092 0z"/><path style="fill:#000000;fill-opacity:1;fill-rule:evenodd;stroke:#000000;stroke-width:1px;stroke-linecap:butt;stroke-linejoin:miter;stroke-opacity:1" id="path3821-3" d="M252.77 114.795a6.046 6.046 0 1 1-12.093 0 6.046 6.046 0 1 1 12.092 0z"/><path style="fill:#000000;fill-opacity:1;fill-rule:evenodd;stroke:#000000;stroke-width:1px;stroke-linecap:butt;stroke-linejoin:miter;stroke-opacity:1" id="path3821-43" d="M259.07 58.083a6.046 6.046 0 1 1-12.09 0 6.046 6.046 0 1 1 12.09 0z"/><path style="fill:#000000;fill-opacity:1;fill-rule:evenodd;stroke:#000000;stroke-width:1px;stroke-linecap:butt;stroke-linejoin:miter;stroke-opacity:1" id="path3821-5" d="M321.743 33.39a6.046 6.046 0 1 1-12.09 0 6.046 6.046 0 1 1 12.09 0z"/><path style="fill:#000000;fill-opacity:1;fill-rule:evenodd;stroke:#000000;stroke-width:1px;stroke-linecap:butt;stroke-linejoin:miter;stroke-opacity:1" id="path3821-1" d="M372.324 70.856a6.046 6.046 0 1 1-12.09 0 6.046 6.046 0 1 1 12.09 0z"/><path style="fill:#000000;fill-opacity:1;fill-rule:evenodd;stroke:#000000;stroke-width:1px;stroke-linecap:butt;stroke-linejoin:miter;stroke-opacity:1" id="path3821-7" d="M317.826 141.022a6.046 6.046 0 1 1-12.09 0 6.046 6.046 0 1 1 12.09 0z"/><path style="fill:#000000;fill-opacity:1;fill-rule:evenodd;stroke:#000000;stroke-width:1px;stroke-linecap:butt;stroke-linejoin:miter;stroke-opacity:1" id="path3821-431" d="M359.38 270.455a6.046 6.046 0 1 1-12.09 0 6.046 6.046 0 1 1 12.09 0z"/><path style="fill:#000000;fill-opacity:1;fill-rule:evenodd;stroke:#000000;stroke-width:1px;stroke-linecap:butt;stroke-linejoin:miter;stroke-opacity:1" id="path3821-46" d="M303.18 314.565a6.046 6.046 0 1 1-12.092 0 6.046 6.046 0 1 1 12.092 0z"/><path style="fill:#000000;fill-opacity:1;fill-rule:evenodd;stroke:#000000;stroke-width:1px;stroke-linecap:butt;stroke-linejoin:miter;stroke-opacity:1" id="path3821-9" d="M277.634 245.42a6.046 6.046 0 1 1-12.092 0 6.046 6.046 0 1 1 12.092 0z"/><path style="fill:#000000;fill-opacity:1;fill-rule:evenodd;stroke:#000000;stroke-width:1px;stroke-linecap:butt;stroke-linejoin:miter;stroke-opacity:1" id="path3821-42" d="M227.904 314.395a6.046 6.046 0 1 1-12.09 0 6.046 6.046 0 1 1 12.09 0z"/><path style="fill:#000000;fill-opacity:1;fill-rule:evenodd;stroke:#000000;stroke-width:1px;stroke-linecap:butt;stroke-linejoin:miter;stroke-opacity:1" id="path3821-2" d="M303.35 376.897a6.046 6.046 0 1 1-12.092 0 6.046 6.046 0 1 1 12.092 0z"/><path style="fill:none;stroke:#000000;stroke-width:1.39999998;stroke-linecap:butt;stroke-linejoin:miter;stroke-miterlimit:4;stroke-opacity:1;stroke-dasharray:none" d="M85.443 144.6L33.67 215.105l61.99 29.633z" id="path4693"/><path style="fill:none;stroke:#000000;stroke-width:1.39999998;stroke-linecap:butt;stroke-linejoin:miter;stroke-miterlimit:4;stroke-opacity:1;stroke-dasharray:none" d="M35.713 214.765l98.438-32.017-50.07-37.81" id="path4695"/><path style="fill:none;stroke:#000000;stroke-width:1.39999998;stroke-linecap:butt;stroke-linejoin:miter;stroke-miterlimit:4;stroke-opacity:1;stroke-dasharray:none" d="M134.15 184.11l87.88 130.796 74.934 62.332 56.542-106.953-81.748-25.205-49.73 69.144 74.595.34-24.865-69.144 39.852-104.227 54.498-71.19-12.602 200.623-131.818 43.598" id="path4697"/><path style="fill:none;stroke:#000000;stroke-width:1.39999998;stroke-linecap:butt;stroke-linejoin:miter;stroke-miterlimit:4;stroke-opacity:1;stroke-dasharray:none" d="M297.304 314.224v61.992" id="path4699"/><path style="fill:none;stroke:#000000;stroke-width:1.39999998;stroke-linecap:butt;stroke-linejoin:miter;stroke-miterlimit:4;stroke-opacity:1;stroke-dasharray:none" d="M311.27 141.193l4.427-108.315-62.672 25.205-6.13 56.2L366.79 70.346 253.025 57.742z" id="path4701"/><path style="fill:none;stroke:#000000;stroke-width:1.39999998;stroke-linecap:butt;stroke-linejoin:miter;stroke-miterlimit:4;stroke-opacity:1;stroke-dasharray:none" d="M134.15 183.43l112.403-68.465" id="path4703"/></g></svg>