<svg xmlns="http://www.w3.org/2000/svg" width="126.938" height="77" id="svg3030"><path style="color:#000000;fill:#ffffff;fill-opacity:1;fill-rule:nonzero;stroke:#555c61;stroke-width:1.7701149;stroke-opacity:1;marker:none;visibility:visible;display:inline;overflow:visible;enable-background:accumulate" d="M42.055.885h39.828c9.806 0 17.7 7.895 17.7 17.7v9.958l10 9.957-10 9.957v9.957c0 9.806-7.894 17.7-17.7 17.7H42.055c-9.806 0-17.7-7.894-17.7-17.7v-9.957l10-9.957-10-9.957v-9.957c0-9.806 7.894-17.7 17.7-17.7z" id="rect3779"/><path d="M86.925 38.47h40" id="path3301" style="fill:none;stroke:#555c61;stroke-width:5;stroke-linecap:butt;stroke-linejoin:miter;stroke-miterlimit:4;stroke-opacity:1;stroke-dasharray:none"/><circle id="circle3295" r="15" style="color:#000000;fill:#555c61;fill-opacity:1;fill-rule:nonzero;stroke:none;stroke-width:5;marker:none;visibility:visible;display:inline;overflow:visible;enable-background:accumulate" transform="translate(61.935 38.503)"/><path style="color:#000000;fill:none;stroke:#555c61;stroke-width:5;stroke-linecap:butt;stroke-linejoin:round;stroke-miterlimit:4;stroke-opacity:1;stroke-dasharray:none;stroke-dashoffset:0;marker:none;visibility:visible;display:inline;overflow:visible;enable-background:accumulate" id="path3777" d="M79.474 20.688a25 25 0 0 1 .29 35.34"/><path style="fill:none;stroke:#555c61;stroke-width:5;stroke-linecap:butt;stroke-linejoin:miter;stroke-miterlimit:4;stroke-opacity:1;stroke-dasharray:none" id="path5020" d="M-.015 38.47H50.97"/></svg>