<svg xmlns="http://www.w3.org/2000/svg" xmlns:xlink="http://www.w3.org/1999/xlink" width="300" height="130" viewBox="0 0 127 77" id="svg3030"><defs id="defs3032"><linearGradient id="linearGradient3834"><stop style="stop-color:#ffffff;stop-opacity:1;" offset="0" id="stop3836"/><stop style="stop-color:#d4d4d4;stop-opacity:1;" offset="1" id="stop3838"/></linearGradient><linearGradient xlink:href="#linearGradient3834" id="linearGradient3848" x1="36.359" y1="37.359" x2="96.146" y2="37.359" gradientUnits="userSpaceOnUse"/></defs><path style="color:#000000;fill:#ffffff;fill-opacity:1;fill-rule:nonzero;stroke:#555c61;stroke-width:1.7701149;stroke-opacity:1;marker:none;visibility:visible;display:inline;overflow:visible;enable-background:accumulate" d="M42.055.885h39.828c9.806 0 17.7 7.895 17.7 17.7v9.958l10 9.957-10 9.957v9.957c0 9.806-7.894 17.7-17.7 17.7H42.055c-9.806 0-17.7-7.894-17.7-17.7v-9.957l10-9.957-10-9.957v-9.957c0-9.806 7.894-17.7 17.7-17.7z" id="rect3779"/><path d="M86.925 38.47h40" id="path3301" style="fill:none;stroke:#555c61;stroke-width:5;stroke-linecap:butt;stroke-linejoin:miter;stroke-miterlimit:4;stroke-opacity:1;stroke-dasharray:none"/><path style="fill:none;stroke:#555c61;stroke-width:5;stroke-linecap:butt;stroke-linejoin:miter;stroke-miterlimit:4;stroke-opacity:1;stroke-dasharray:none" id="path5020" d="M-.015 38.47H50.97"/><path style="color:#000000;fill:url(#linearGradient3848);fill-opacity:1;stroke:#6f6f6f;stroke-width:0.72644591000000003;stroke-linecap:butt;stroke-linejoin:round;stroke-miterlimit:4;stroke-opacity:1;stroke-dashoffset:0;marker:none;visibility:visible;display:inline;overflow:visible;enable-background:accumulate" d="M57.22 10.5c-4.378 0-7.907 3.708-7.907 8.25 0 1.09.192 2.11.562 3.063-.827-.314-1.72-.47-2.656-.47-4.145 0-7.5 3.357-7.5 7.5 0 1.63.524 3.146 1.405 4.376-2.874 2.132-4.75 5.55-4.75 9.405 0 6.465 5.223 11.688 11.688 11.688.842 0 1.676-.113 2.468-.282-.028.282-.06.588-.06.876 0 4.476 3.648 8.094 8.124 8.094 2.816 0 5.266-1.413 6.718-3.594 2.13 2.92 5.58 4.813 9.47 4.813 6.464 0 11.718-5.255 11.718-11.72 0-1.266-.222-2.483-.594-3.625 5.668-.153 10.25-4.764 10.25-10.47 0-5.8-4.73-10.5-10.53-10.5-.676 0-1.33.067-1.97.19.08-.556.156-1.143.156-1.72 0-6.465-5.254-11.688-11.718-11.688-2.667 0-5.126.906-7.094 2.407-.74-3.748-3.952-6.594-7.78-6.594z" id="path3019"/></svg>