<svg xmlns="http://www.w3.org/2000/svg" width="108.469" height="87" id="svg3030"><defs id="defs3032"><marker orient="auto" id="Arrow2Send" style="overflow:visible;"><path id="path3848" style="fill-rule:evenodd;stroke-width:0.62500000;stroke-linejoin:round;" d="M-1.926-1.21L1.352-.005-1.926 1.2c.524-.71.52-1.685 0-2.41z"/></marker><marker orient="auto" id="Arrow1Lend" style="overflow:visible;"><path id="path3818" d="M-10 0l-4 4L0 0l-14-4 4 4z" style="fill-rule:evenodd;stroke:#000000;stroke-width:1.0pt;"/></marker></defs><g id="g3786"><g id="g3034"><path style="color:#000000;fill:#ffffff;fill-opacity:1;fill-rule:nonzero;stroke:#555c61;stroke-width:1.7701149;stroke-opacity:1;marker:none;visibility:visible;display:inline;overflow:visible;enable-background:accumulate" d="M43.586 5.885h39.828c9.806 0 17.7 7.895 17.7 17.7v39.829c0 9.806-7.894 17.7-17.7 17.7H43.586c-9.806 0-17.7-7.894-17.7-17.7v-9.957l10-9.957-10-9.957v-9.957c0-9.806 7.894-17.7 17.7-17.7z" id="rect3779"/><path d="M4.5 43.47h50" id="path3301" style="fill:none;stroke:#555c61;stroke-width:5;stroke-linecap:butt;stroke-linejoin:miter;stroke-miterlimit:4;stroke-opacity:1;stroke-dasharray:none;marker-end:none"/><circle id="circle3295" r="15" style="color:#000000;fill:#555c61;fill-opacity:1;fill-rule:nonzero;stroke:none;stroke-width:5;marker:none;visibility:visible;display:inline;overflow:visible;enable-background:accumulate" transform="translate(63.5 43.5)"/></g></g></svg>